<?xml version="1.0" standalone="no"?>
<!DOCTYPE svg PUBLIC "-//W3C//DTD SVG 20010904//EN"
 "http://www.w3.org/TR/2001/REC-SVG-20010904/DTD/svg10.dtd">
<svg version="1.0" xmlns="http://www.w3.org/2000/svg"
 width="1000.000000pt" height="1000.000000pt" viewBox="0 0 1000.000000 1000.000000"
 preserveAspectRatio="xMidYMid meet">
<metadata>
Created by potrace 1.11, written by Peter Selinger 2001-2013
</metadata>
<g transform="translate(0.000000,1000.000000) scale(0.100000,-0.100000)"
fill="#000000" stroke="none">
<path d="M4695 9819 c-1029 -65 -1985 -448 -2802 -1123 -139 -115 -474 -450
-589 -589 -411 -498 -699 -1016 -894 -1609 -346 -1052 -312 -2231 96 -3265
189 -479 452 -921 798 -1340 115 -139 450 -474 589 -589 498 -411 1016 -699
1609 -894 1052 -346 2231 -312 3265 96 479 189 921 452 1340 798 139 115 474
450 589 589 411 498 699 1016 894 1609 282 855 313 1797 90 2684 -150 599
-430 1190 -795 1679 -164 220 -268 340 -474 546 -206 206 -326 310 -546 474
-896 669 -2038 1005 -3170 934z m475 -562 c91 -230 120 -294 138 -302 12 -5
22 -18 22 -27 0 -16 -11 -18 -100 -18 -91 0 -100 2 -100 19 0 10 9 21 20 24
24 6 25 28 4 83 l-16 41 -115 7 c-64 4 -119 4 -123 -1 -4 -4 -16 -30 -26 -57
-18 -49 -18 -49 4 -64 45 -30 28 -42 -58 -42 -65 0 -80 3 -80 15 0 9 12 21 26
27 14 7 34 28 44 47 32 64 183 426 182 436 -1 6 -4 24 -8 42 -5 27 -2 33 22
47 16 8 34 15 39 16 6 0 62 -132 125 -293z m-594 197 c6 -41 6 -78 2 -80 -16
-10 -43 7 -63 39 -17 27 -27 32 -66 35 -25 2 -68 -1 -95 -5 -56 -10 -54 -2
-33 -151 l11 -84 47 7 c52 8 71 20 71 45 0 18 25 34 40 25 6 -4 24 -125 21
-152 -1 -20 -39 -12 -55 11 -13 20 -25 26 -54 26 -65 0 -66 -3 -46 -136 9 -65
17 -120 18 -121 1 -1 44 4 95 12 111 17 138 32 146 82 10 57 13 63 34 63 16 0
20 -11 28 -77 6 -43 9 -80 7 -82 -5 -6 -390 -60 -426 -61 -34 0 -37 22 -6 42
l22 15 -33 249 c-18 137 -35 252 -38 257 -2 4 -10 7 -17 7 -16 0 -41 28 -33
36 3 3 84 17 179 30 95 13 184 28 198 33 14 5 28 9 31 10 3 1 10 -33 15 -75z
m950 56 c117 -21 128 -28 77 -52 -27 -13 -29 -19 -60 -203 -17 -105 -32 -206
-32 -225 -1 -45 29 -94 71 -116 47 -25 129 -24 164 2 56 41 64 63 94 250 36
216 36 230 10 244 -11 6 -20 20 -20 32 0 17 4 20 29 15 15 -3 51 -9 80 -13 56
-7 68 -27 27 -46 -34 -15 -41 -39 -71 -232 -26 -169 -41 -224 -73 -259 -65
-72 -227 -79 -323 -14 -87 58 -95 111 -54 363 29 180 31 212 10 220 -18 7 -20
44 -2 44 7 0 40 -5 73 -10z m-1622 -154 c104 -43 110 -188 10 -255 l-36 -25
29 -20 c15 -11 53 -43 83 -71 100 -92 130 -115 154 -115 23 0 43 -25 28 -33
-4 -3 -33 -12 -65 -21 l-59 -17 -111 104 c-62 57 -122 109 -135 116 -23 12
-82 6 -82 -8 0 -19 63 -217 72 -228 6 -7 19 -13 30 -13 13 0 18 -6 16 -16 -4
-24 -167 -71 -179 -52 -6 8 -1 19 13 29 l22 17 -68 233 c-38 129 -72 242 -77
251 -5 9 -19 18 -31 20 -13 2 -24 10 -26 19 -2 12 29 24 140 56 153 44 219 51
272 29z m-551 -138 c2 -7 -2 -25 -11 -39 -14 -25 -12 -32 33 -130 133 -292
128 -278 123 -335 -5 -63 -36 -113 -91 -150 -115 -76 -249 -72 -310 9 -13 18
-59 109 -102 202 -43 94 -83 175 -88 182 -4 6 -21 13 -35 15 -47 5 -30 26 56
68 69 33 84 37 89 24 3 -8 1 -20 -6 -27 -6 -6 -11 -18 -11 -27 0 -18 149 -344
176 -385 37 -56 108 -70 181 -34 58 28 87 70 87 128 0 36 -17 82 -75 209 -76
167 -107 216 -132 206 -13 -5 -44 22 -35 31 6 6 131 64 140 65 3 0 8 -6 11
-12z m3388 -13 c62 -21 115 -67 147 -129 24 -44 27 -62 27 -141 0 -82 -3 -97
-33 -157 -100 -204 -329 -262 -472 -119 -63 63 -84 126 -78 230 14 228 213
382 409 316z m561 -297 c84 -50 167 -97 185 -103 l32 -11 -40 -67 c-22 -37
-44 -67 -48 -67 -21 0 -33 31 -27 66 5 24 3 43 -8 58 -13 20 -127 96 -145 96
-8 0 -111 -172 -111 -187 0 -6 20 -21 45 -34 38 -20 48 -22 65 -11 22 13 56
16 64 4 2 -4 -13 -36 -35 -72 -46 -78 -71 -86 -79 -25 -4 32 -12 44 -45 66
-22 15 -43 25 -46 23 -11 -6 -119 -192 -119 -203 0 -6 6 -20 12 -31 9 -14 9
-23 2 -30 -13 -13 -176 78 -171 95 2 5 18 11 35 13 30 3 40 17 163 222 124
208 130 220 116 241 -13 17 -14 49 -2 49 2 0 72 -41 157 -92z m-4620 -68 c20
-6 50 -26 67 -46 26 -29 31 -43 31 -86 0 -35 -7 -62 -22 -86 -21 -34 -21 -35
-2 -27 10 4 44 10 74 12 71 6 116 -22 144 -89 17 -41 18 -52 6 -92 -7 -25 -27
-62 -45 -84 -33 -38 -270 -202 -293 -202 -15 0 -16 32 0 48 8 8 -23 63 -130
224 -122 185 -144 213 -166 213 -24 1 -55 20 -45 29 2 2 64 42 136 89 110 72
163 99 203 106 3 1 22 -4 42 -9z m2788 -248 c80 -11 192 -30 250 -42 1432
-290 2552 -1417 2834 -2850 49 -251 61 -383 61 -700 0 -317 -12 -449 -61 -700
-284 -1441 -1413 -2570 -2854 -2854 -251 -49 -383 -61 -700 -61 -317 0 -449
12 -700 61 -1441 284 -2570 1413 -2854 2854 -49 251 -61 383 -61 700 0 317 12
449 61 700 284 1441 1413 2570 2854 2854 106 21 258 42 435 60 22 2 164 2 315
1 205 -3 312 -9 420 -23z m2543 -206 c62 -23 105 -62 134 -126 16 -33 33 -60
39 -60 6 0 16 -6 22 -13 8 -10 -3 -28 -45 -76 -51 -57 -57 -61 -72 -47 -14 15
-14 21 2 65 34 96 14 156 -62 193 -40 19 -49 20 -90 9 -155 -41 -313 -251
-280 -374 22 -83 98 -132 192 -125 36 3 42 0 45 -18 3 -18 -3 -22 -42 -27
-102 -14 -205 42 -252 138 -52 107 -20 251 79 353 97 101 229 144 330 108z
m-6252 -270 c-8 -9 -9 -21 -4 -29 14 -24 360 -357 371 -357 16 0 122 122 129
148 3 14 -1 39 -11 58 -19 41 -20 56 -4 72 10 10 25 0 70 -45 l58 -58 -157
-157 c-119 -120 -160 -155 -170 -147 -9 8 -10 16 -2 32 10 18 -7 39 -174 204
-169 169 -187 184 -206 173 -23 -12 -41 -6 -41 13 0 6 28 40 62 74 54 55 64
61 77 48 11 -11 12 -17 2 -29z m6671 -186 c63 -23 128 -85 157 -150 62 -138
-23 -321 -187 -402 -58 -29 -76 -33 -147 -33 -70 0 -87 4 -134 30 -58 32 -113
96 -132 152 -18 55 -7 159 24 218 46 90 123 156 214 185 76 25 140 25 205 0z
m-6792 -300 c282 -71 328 -78 346 -60 8 8 14 7 22 -3 9 -10 -1 -30 -44 -91
-57 -78 -81 -91 -77 -42 2 22 -4 30 -30 41 -85 34 -85 34 -161 -71 -75 -105
-75 -103 -22 -169 19 -24 25 -26 44 -16 13 7 28 8 37 3 13 -6 7 -19 -31 -70
-26 -35 -52 -61 -58 -59 -6 2 -12 22 -14 44 -2 31 -32 87 -131 249 -111 181
-131 209 -158 216 -17 4 -33 14 -36 21 -8 23 5 77 19 77 8 0 140 -31 294 -70z
m7215 -233 l39 -73 -113 -218 c-61 -120 -110 -221 -107 -223 5 -5 226 119 274
154 20 15 32 33 32 47 0 13 6 29 14 35 11 9 21 -1 50 -54 20 -36 36 -70 36
-74 0 -14 -32 -23 -44 -11 -5 5 -19 10 -31 10 -11 0 -124 -58 -250 -130 -310
-176 -304 -185 -117 182 78 155 140 283 138 285 -6 6 -345 -185 -373 -210 -12
-11 -23 -34 -25 -51 -5 -49 -28 -38 -70 34 -21 36 -38 68 -38 71 0 15 33 18
52 5 27 -19 35 -16 242 101 222 125 229 130 222 158 -3 12 -3 25 1 29 16 16
32 1 68 -67z m-7647 -207 c53 -32 74 -75 69 -143 -3 -55 -2 -58 17 -53 12 3
79 10 151 16 106 9 134 15 151 31 13 12 28 17 38 13 19 -7 20 -3 -19 -77 -28
-52 -33 -57 -65 -57 -19 -1 -93 -5 -165 -10 -122 -8 -131 -10 -152 -35 -13
-14 -23 -32 -23 -38 0 -7 50 -37 111 -67 103 -51 111 -54 124 -37 11 15 45 15
45 0 0 -3 -19 -40 -42 -84 -45 -83 -73 -100 -73 -45 0 26 -12 34 -226 144
-213 110 -228 116 -252 103 -53 -29 -49 -2 24 137 40 75 81 148 93 161 55 62
133 78 194 41z m7952 -349 c0 -22 145 -406 165 -438 14 -20 12 -22 -50 -47
-36 -14 -72 -26 -80 -26 -27 0 -17 45 15 68 20 15 30 31 30 49 0 39 -22 103
-35 103 -9 0 -339 -124 -467 -175 -11 -4 -18 -18 -18 -35 0 -38 -26 -46 -38
-12 -5 15 -21 58 -36 95 -23 60 -24 69 -9 74 9 4 21 -1 28 -10 7 -10 20 -17
29 -17 33 0 476 175 476 188 0 19 -36 86 -54 101 -10 9 -28 11 -47 7 -33 -6
-59 7 -59 29 0 12 107 62 138 64 6 1 12 -8 12 -18z m-8318 -193 c58 -19 68
-25 66 -43 -2 -16 -12 -21 -44 -23 -53 -4 -76 -28 -108 -117 -14 -38 -24 -70
-23 -71 2 -3 208 -74 212 -74 2 0 10 21 19 46 15 46 9 84 -14 84 -11 0 -14 33
-4 42 10 10 154 -43 154 -57 0 -17 -20 -32 -50 -37 -19 -2 -28 -14 -42 -49
l-17 -46 120 -41 c85 -30 121 -38 124 -29 31 82 55 166 55 188 0 21 -11 37
-40 60 -40 32 -49 52 -30 64 6 4 44 -5 85 -20 72 -27 73 -28 63 -54 -5 -14
-39 -109 -74 -210 -35 -101 -66 -186 -69 -189 -8 -9 -34 19 -29 32 3 7 -1 17
-8 23 -10 8 -384 140 -468 166 -8 2 -24 -4 -35 -14 -11 -10 -26 -15 -32 -11
-9 6 5 55 48 180 32 94 60 183 61 197 1 14 4 25 7 25 3 0 35 -10 73 -22z
m8565 -568 c38 -169 39 -200 13 -257 -50 -111 -187 -110 -259 0 -22 33 -26 36
-34 20 -6 -10 -54 -61 -109 -113 -77 -74 -98 -101 -98 -122 0 -17 -6 -28 -17
-30 -14 -3 -21 9 -35 61 l-17 64 126 122 c122 118 126 123 119 155 -3 19 -8
35 -10 37 -5 6 -229 -46 -237 -55 -4 -4 -9 -16 -11 -27 -2 -11 -10 -20 -17
-20 -10 0 -20 26 -33 80 -9 44 -18 86 -18 93 0 17 37 15 44 -3 3 -8 13 -15 23
-15 32 0 478 102 491 112 6 6 12 19 12 30 0 13 6 18 17 16 14 -2 25 -35 50
-148z m-8435 -29 c59 -25 133 -92 159 -144 34 -65 34 -121 4 -281 -23 -119
-31 -146 -44 -144 -9 2 -17 12 -19 23 -2 11 -7 23 -11 27 -7 8 -461 98 -491
98 -10 0 -24 -10 -33 -22 -12 -18 -18 -20 -28 -11 -10 10 -6 40 15 149 32 156
37 175 73 227 27 39 72 72 132 94 51 19 183 11 243 -16z m8390 -518 c66 -30
132 -94 158 -155 18 -43 22 -65 18 -123 -5 -79 -23 -119 -74 -170 -157 -158
-449 -122 -543 66 -104 207 58 416 314 406 54 -2 95 -10 127 -24z m-8266 -260
c-15 -310 -17 -333 -32 -333 -8 0 -19 11 -24 24 -10 28 -41 32 -343 42 -186 7
-188 7 -194 -15 -3 -12 -13 -21 -24 -21 -17 0 -18 12 -16 210 l2 210 25 0 c14
0 49 -3 78 -6 42 -6 52 -10 52 -25 0 -13 -13 -25 -40 -35 -22 -9 -44 -24 -49
-33 -5 -9 -12 -53 -16 -98 l-7 -83 48 0 c27 0 79 -3 117 -7 l67 -6 0 57 c0 51
-3 58 -25 68 -17 8 -25 18 -23 31 3 19 10 20 83 18 44 -1 81 -4 83 -6 10 -10
-12 -45 -31 -51 -30 -9 -37 -22 -37 -70 l0 -41 68 -6 c37 -4 92 -7 123 -7 l56
0 7 78 c3 43 3 93 0 111 -7 33 -45 71 -73 71 -20 0 -41 19 -41 37 0 10 22 13
86 13 l86 0 -6 -127z m7859 -402 c13 -28 12 -28 255 -46 113 -8 218 -17 233
-20 21 -4 34 2 52 21 43 47 48 24 29 -134 -5 -38 -7 -41 -25 -32 -10 6 -19 17
-19 25 0 20 -15 22 -240 40 -107 8 -216 17 -242 20 l-46 5 -7 -93 c-8 -110 -2
-128 55 -157 28 -14 40 -27 40 -42 0 -20 -3 -20 -77 -14 -43 4 -78 8 -79 9 -2
1 32 423 36 445 1 11 27 -8 35 -27z m-8347 -48 c-2 -19 -12 -32 -31 -41 -50
-24 -60 -52 -52 -143 l7 -81 47 6 c25 3 77 8 114 11 l69 7 -7 51 c-4 31 -13
56 -22 62 -32 20 -55 47 -46 55 4 5 43 11 86 15 l77 7 0 -26 c0 -14 -4 -26 -9
-26 -24 0 -41 -34 -41 -82 l0 -51 116 7 c133 9 144 11 144 36 0 17 27 36 37
26 3 -2 8 -44 13 -93 9 -101 1 -122 -33 -81 l-22 27 -235 -20 c-266 -22 -280
-24 -280 -43 0 -16 -28 -41 -36 -33 -3 3 -14 92 -23 199 -10 106 -20 200 -22
208 -3 12 10 16 61 21 36 3 71 6 78 7 9 1 12 -7 10 -25z m407 -998 c21 -58 35
-108 32 -111 -4 -5 -216 32 -222 38 -2 2 146 176 151 178 1 0 18 -47 39 -105z
m8133 -36 l33 -37 -56 -11 c-30 -6 -80 -16 -111 -22 -30 -6 -58 -8 -61 -5 -3
3 11 52 32 110 l37 105 47 -52 c25 -28 61 -68 79 -88z m-7721 -581 c15 -29 30
-57 32 -62 2 -4 -11 -5 -28 -1 -26 5 -50 -4 -148 -56 -139 -74 -173 -104 -173
-151 0 -58 54 -117 107 -118 21 0 212 94 266 132 15 11 27 28 27 38 0 38 20
29 45 -19 14 -28 25 -53 25 -56 0 -4 -13 -4 -29 0 -24 5 -55 -7 -167 -65 -152
-79 -182 -84 -243 -41 -37 27 -81 114 -81 161 0 64 33 97 166 169 139 76 155
87 147 107 -3 8 1 14 11 14 9 0 28 -23 43 -52z m7555 -107 c36 19 39 -2 7 -62
-33 -61 -55 -75 -61 -36 -2 18 -10 23 -43 25 l-40 3 -40 -75 -40 -75 25 -26
c19 -20 30 -24 52 -20 34 8 35 0 6 -60 -24 -50 -40 -53 -48 -11 -8 42 -219
292 -252 300 -24 5 -28 11 -28 39 l0 33 222 -22 c151 -15 228 -19 240 -13z
m-516 -253 c38 -27 43 -34 31 -46 -11 -11 -23 -11 -52 -3 -45 12 -75 2 -104
-35 -27 -34 -27 -66 1 -115 34 -61 128 -127 205 -144 45 -9 98 11 124 46 17
25 21 41 17 84 -3 40 -1 56 9 59 8 4 17 -5 23 -20 30 -78 -13 -174 -95 -214
-109 -53 -260 11 -321 136 -46 94 -25 178 59 233 20 13 37 30 37 38 0 21 18
16 66 -19z m-6810 -39 l32 -44 -64 -159 c-35 -88 -62 -162 -59 -164 2 -2 46
26 99 62 74 52 95 72 98 93 5 39 20 37 51 -8 31 -45 30 -77 -1 -60 -22 12 -40
1 -229 -132 -96 -68 -124 -83 -133 -73 -8 10 10 65 70 217 44 112 79 207 78
210 -2 4 -60 -33 -130 -83 -113 -79 -128 -93 -128 -118 0 -47 -16 -43 -55 11
-28 39 -34 54 -24 60 7 4 19 3 26 -2 16 -14 31 -5 186 103 105 74 127 94 127
114 0 35 18 26 56 -27z m6526 -276 c-2 -16 30 -46 137 -132 119 -96 143 -111
165 -105 36 9 33 -8 -11 -66 -39 -50 -60 -59 -56 -22 4 31 -283 258 -303 241
-9 -7 -18 -9 -24 -3 -5 5 7 30 32 62 41 53 66 63 60 25z m-6243 -100 c48 -56
51 -68 15 -59 -22 6 -44 -9 -164 -110 -107 -89 -139 -121 -137 -138 3 -35 -20
-24 -63 28 -30 36 -37 51 -28 57 7 4 18 3 25 -3 19 -16 293 217 293 249 0 34
14 28 59 -24z m196 -214 c55 -61 112 -118 127 -128 l27 -17 -44 -44 c-38 -37
-45 -41 -51 -26 -4 9 -1 29 5 43 10 21 8 30 -10 59 -11 19 -26 34 -32 34 -7 0
-69 -57 -139 -127 -106 -107 -127 -132 -122 -150 11 -39 -21 -27 -65 26 -23
27 -41 52 -41 56 0 4 12 4 26 1 24 -6 40 7 158 124 l131 131 -28 24 c-30 26
-57 31 -86 16 -10 -6 -23 -6 -31 -1 -12 7 -7 17 25 50 21 22 42 40 45 39 3 0
50 -50 105 -110z m5930 97 c23 -10 41 -28 52 -51 16 -33 16 -40 2 -79 l-15
-42 102 -18 c56 -10 114 -16 127 -12 39 9 41 -10 5 -49 l-33 -35 -105 25
c-123 29 -130 29 -156 11 -18 -14 -16 -18 41 -76 47 -48 65 -60 82 -55 41 10
36 -17 -13 -66 -49 -49 -68 -55 -58 -16 4 19 -17 43 -125 146 -100 93 -136
122 -153 119 -13 -2 -23 2 -23 9 0 23 139 166 179 184 50 23 48 22 91 5z
m-316 -287 c41 -47 32 -70 -18 -50 -37 16 -55 10 -105 -34 l-38 -34 52 -61
c52 -59 54 -60 74 -43 12 10 23 19 26 21 2 2 4 17 5 34 0 17 5 32 10 34 6 1
28 -18 49 -43 43 -48 38 -67 -14 -57 -17 4 -34 -1 -50 -14 l-24 -19 58 -66
c66 -76 67 -76 135 -2 33 36 41 52 36 68 -17 54 -17 67 -3 67 13 0 78 -70 78
-84 0 -8 -230 -206 -239 -206 -15 0 -21 13 -10 26 16 19 -223 295 -254 291
-12 -1 -22 3 -22 9 0 6 46 51 103 99 56 48 102 91 102 96 0 17 15 7 49 -32z
m-5305 -99 c61 -50 114 -90 119 -90 4 0 -8 -20 -29 -45 -28 -35 -40 -43 -50
-34 -9 8 -10 17 -3 36 5 14 7 33 4 43 -6 19 -78 80 -94 80 -5 0 -31 -26 -56
-57 l-47 -57 26 -23 c20 -17 34 -21 56 -16 40 8 39 -11 -4 -61 -35 -41 -59
-42 -54 -1 3 24 -27 66 -46 64 -6 0 -35 -29 -63 -64 l-53 -64 48 -40 c58 -51
86 -59 123 -37 27 16 49 15 49 -3 0 -4 -16 -26 -36 -49 l-35 -42 -122 101
c-67 56 -122 106 -122 113 0 6 10 10 22 9 17 -2 47 28 138 137 99 119 115 142
109 164 -3 14 -2 26 2 26 5 0 58 -41 118 -90z m5006 -123 c0 -7 -5 -18 -10
-23 -14 -14 189 -315 210 -312 8 2 21 -1 28 -6 10 -6 -2 -19 -44 -47 -62 -41
-78 -42 -68 -4 5 18 -12 50 -76 144 -45 67 -85 123 -89 125 -3 3 15 -79 40
-180 62 -242 63 -241 -127 -101 -163 120 -170 125 -159 106 31 -51 145 -216
156 -226 8 -6 25 -13 38 -15 14 -1 26 -7 28 -13 2 -9 -88 -75 -103 -75 -3 0
-3 15 0 33 5 29 -4 48 -92 177 -81 121 -101 145 -120 143 -38 -4 -25 23 28 57
l50 32 137 -100 c76 -55 139 -99 141 -97 2 2 -15 73 -37 158 -23 86 -41 160
-41 166 0 12 80 70 98 71 6 0 12 -6 12 -13z m-4721 -95 c47 -31 98 -74 114
-94 106 -133 -35 -363 -212 -346 -38 4 -69 18 -142 64 -99 64 -117 84 -75 84
23 0 40 21 126 151 80 121 98 154 90 168 -9 17 -4 32 9 30 3 0 44 -26 90 -57z
m4238 -417 c92 -79 176 -145 187 -147 38 -6 25 -24 -40 -56 l-66 -33 5 33 c5
28 1 37 -23 56 l-29 23 -73 -37 c-40 -20 -74 -38 -76 -39 -2 -2 0 -19 4 -40 4
-26 14 -39 30 -45 13 -5 24 -12 24 -15 0 -8 -102 -57 -108 -51 -3 3 0 18 7 33
20 44 -5 348 -31 387 -17 24 -18 31 -7 52 7 13 16 24 21 24 5 0 84 -65 175
-145z m-3639 85 c23 -10 42 -24 42 -30 0 -6 13 -16 29 -21 l30 -11 -22 -44
c-28 -59 -51 -56 -55 8 -2 35 -9 52 -25 63 -47 33 -107 7 -107 -47 0 -20 13
-43 43 -76 64 -69 77 -92 77 -135 0 -129 -144 -189 -248 -103 -15 13 -39 26
-54 30 l-27 6 23 53 c26 58 49 68 54 22 7 -73 46 -115 108 -115 39 0 74 36 74
76 0 25 -12 48 -48 91 -27 32 -54 68 -60 80 -29 53 2 133 61 158 42 19 54 18
105 -5z m359 -154 c72 -25 139 -46 147 -46 20 0 20 -14 0 -67 -21 -55 -52 -59
-45 -6 5 35 -68 89 -88 67 -9 -10 -121 -326 -121 -342 0 -5 8 -13 17 -16 12
-5 13 -10 6 -17 -17 -17 -144 27 -136 47 3 8 11 13 19 10 7 -3 17 1 22 7 8 10
122 330 122 342 0 2 -19 10 -41 17 -40 11 -43 11 -65 -15 -21 -24 -54 -37 -54
-20 0 3 7 30 17 59 16 52 17 53 42 39 14 -7 85 -34 158 -59z m2726 -18 c9 -28
14 -55 11 -60 -10 -16 -32 -8 -48 17 -19 29 -44 31 -110 9 -52 -18 -50 -9 -16
-109 16 -45 20 -50 45 -48 34 3 55 20 55 45 0 39 33 14 51 -39 15 -46 16 -52
2 -58 -9 -3 -24 2 -34 11 -17 15 -72 13 -83 -4 -2 -4 7 -42 21 -85 19 -62 29
-80 49 -87 35 -14 25 -24 -46 -45 -66 -20 -78 -17 -58 14 11 18 5 42 -42 187
-45 136 -59 168 -77 175 -13 5 -23 13 -23 18 0 5 57 28 128 51 70 24 131 46
137 51 16 16 21 10 38 -43z m-2348 -100 c3 -13 19 -113 36 -223 18 -118 36
-206 45 -216 23 -25 16 -32 -23 -25 -77 12 -112 26 -106 41 3 8 12 15 20 15
11 0 13 11 11 43 l-3 42 -82 22 -83 21 -21 -30 c-19 -26 -20 -33 -9 -54 8 -13
11 -27 7 -30 -11 -11 -107 17 -107 32 0 8 6 14 13 14 19 0 53 40 151 176 55
78 86 130 86 147 0 43 56 64 65 25z m1898 -12 c44 -18 111 -95 125 -144 17
-57 14 -141 -7 -187 -30 -68 -113 -125 -181 -125 -73 0 -155 61 -190 142 -33
76 -26 180 15 239 54 77 157 109 238 75z m-1530 -51 c89 -13 167 -20 175 -18
10 4 12 -5 6 -48 -3 -30 -11 -58 -16 -64 -12 -12 -38 20 -38 47 0 20 -36 38
-74 38 -21 0 -23 -8 -44 -162 -27 -193 -27 -197 -5 -213 32 -23 6 -32 -66 -22
-70 10 -91 24 -51 34 24 6 23 6 50 191 28 198 28 192 -17 192 -44 0 -56 -6
-72 -37 -6 -13 -18 -23 -26 -23 -16 0 -19 22 -9 82 4 21 11 35 16 32 6 -4 83
-17 171 -29z m869 -36 c24 0 28 -4 34 -45 4 -30 3 -49 -5 -57 -13 -12 -18 -8
-64 58 -34 48 -117 20 -117 -40 0 -35 28 -60 91 -80 108 -35 139 -68 139 -148
0 -52 -28 -100 -71 -122 -31 -17 -48 -18 -151 -14 l-58 2 0 58 c0 68 19 80 45
30 34 -67 106 -82 156 -32 58 59 28 113 -83 150 -71 23 -101 49 -119 99 -13
39 1 89 34 119 31 29 46 33 97 27 25 -2 57 -4 72 -5z m-322 -55 c0 -65 -18
-72 -48 -20 -19 32 -24 34 -80 38 -60 3 -61 3 -66 -26 -3 -16 -6 -53 -6 -82
l0 -54 35 0 c24 0 39 6 47 20 24 38 38 24 38 -40 0 -67 -15 -79 -44 -35 -11
17 -26 25 -46 25 -26 0 -30 -4 -30 -29 0 -15 -3 -56 -6 -90 l-7 -62 84 3 84 3
18 38 c9 20 24 37 32 37 16 0 21 -53 9 -97 -6 -22 -11 -23 -98 -23 -138 0
-226 10 -226 26 0 8 6 14 14 14 15 0 26 106 26 271 0 86 -3 108 -15 113 -8 3
-15 10 -15 16 0 7 49 10 150 9 l150 -2 0 -53z"/>
<path d="M5007 9340 c-9 -19 -31 -72 -50 -117 -35 -81 -35 -81 -14 -87 12 -3
55 -6 95 -6 52 0 72 4 72 13 0 7 -20 62 -44 122 l-45 110 -14 -35z"/>
<path d="M3703 9302 c-28 -10 -54 -19 -57 -22 -4 -5 51 -210 59 -218 2 -2 28
3 59 12 105 31 144 91 111 173 -11 29 -27 46 -50 57 -40 19 -55 19 -122 -2z"/>
<path d="M6603 9160 c-127 -65 -231 -356 -165 -462 41 -66 123 -92 193 -61
137 61 249 356 177 463 -52 76 -129 98 -205 60z"/>
<path d="M2510 8737 c-30 -18 -55 -40 -54 -48 1 -8 27 -54 58 -102 l56 -88 31
18 c17 10 46 35 65 56 41 44 45 92 13 143 -39 65 -88 70 -169 21z"/>
<path d="M2694 8525 c-27 -14 -60 -34 -73 -44 l-25 -19 65 -97 c35 -54 67
-102 70 -108 11 -16 132 74 153 115 18 31 18 41 8 76 -7 23 -26 55 -43 71 -39
39 -86 41 -155 6z"/>
<path d="M3690 8205 c0 -3 107 -141 238 -306 130 -166 248 -316 262 -334 62
-81 144 -185 519 -663 156 -199 287 -362 291 -362 5 0 113 134 241 298 128
163 273 349 323 412 93 117 132 167 176 225 14 18 148 189 298 378 149 190
272 348 272 351 0 3 -589 6 -1310 6 -720 0 -1310 -2 -1310 -5z"/>
<path d="M2755 7758 c-40 -47 -73 -123 -81 -184 -6 -50 -8 -53 -38 -56 l-31
-3 -18 -100 c-10 -55 -16 -114 -13 -132 4 -28 2 -32 -22 -35 -33 -4 -39 -27
-41 -158 0 -80 3 -105 24 -155 14 -33 25 -60 25 -61 0 0 -10 0 -22 0 -22 1
-23 -3 -21 -66 1 -61 16 -107 60 -189 2 -4 -5 -9 -17 -12 -42 -11 -17 -157 39
-228 30 -37 31 -38 8 -41 -44 -6 -26 -120 32 -188 27 -33 28 -35 9 -50 -17
-13 -18 -20 -8 -67 14 -63 55 -123 110 -159 l40 -27 -40 -18 c-46 -21 -47 -26
-21 -78 27 -52 83 -99 137 -113 49 -14 54 -22 22 -39 -32 -16 -88 -70 -88 -85
0 -15 102 -60 168 -75 l53 -11 -39 -28 c-49 -35 -106 -119 -92 -135 12 -15 69
-31 138 -40 l53 -7 -41 -44 c-52 -56 -78 -110 -62 -126 6 -6 47 -13 90 -16
l79 -4 -33 -49 c-33 -49 -51 -105 -39 -117 4 -4 44 -7 90 -6 l82 0 -28 -60
c-44 -92 -42 -96 39 -96 37 0 81 4 99 9 l31 9 -19 -42 c-10 -23 -20 -62 -21
-87 l-3 -44 54 3 c29 2 73 9 96 17 l43 12 -15 -42 c-8 -24 -13 -61 -11 -82 l3
-38 45 3 c40 3 81 15 131 36 14 6 15 -3 11 -74 -4 -73 -3 -80 14 -80 46 0 160
46 197 78 16 14 17 12 17 -29 1 -55 29 -139 52 -153 25 -15 62 8 146 90 l72
72 0 -152 0 -151 -87 -50 c-109 -63 -288 -229 -299 -278 -3 -18 -19 -47 -35
-65 -17 -19 -29 -44 -29 -61 0 -25 -6 -31 -52 -48 -29 -11 -54 -18 -55 -14 -1
3 -4 18 -7 33 -3 14 -18 40 -32 57 -21 25 -33 31 -66 31 -49 0 -98 -43 -98
-87 0 -26 -5 -22 -85 57 -47 47 -85 89 -85 95 0 16 -83 95 -100 95 -8 0 2 16
23 38 37 38 37 38 17 57 -11 10 -20 22 -20 27 0 14 22 9 42 -9 18 -16 21 -14
73 37 30 30 55 59 55 65 0 6 -15 26 -33 43 l-33 32 -19 -20 -18 -20 -22 20
c-27 25 -37 25 -60 0 -10 -11 -21 -18 -23 -15 -3 3 5 16 18 30 l23 25 -23 25
c-23 24 -23 25 -5 45 19 21 18 21 -23 63 l-42 42 -60 -60 -60 -59 31 -32 c37
-38 21 -59 -17 -23 l-24 23 -35 -34 -35 -34 -48 47 c-49 48 -68 55 -103 37
-17 -9 -49 -59 -49 -75 0 -3 22 -30 50 -59 l50 -52 -35 -34 -35 -34 26 -27
c17 -18 22 -29 14 -34 -16 -10 -48 22 -70 72 -27 62 -79 131 -115 153 -24 15
-39 17 -70 11 -22 -5 -75 -11 -117 -15 l-77 -6 -11 39 c-14 53 -29 135 -25
139 2 2 22 -6 46 -18 90 -47 172 -6 229 113 69 143 63 265 -24 522 -89 262
-101 355 -67 538 10 53 15 100 10 102 -14 9 -117 -133 -139 -192 -18 -48 -20
-74 -18 -179 2 -67 0 -126 -5 -130 -4 -4 -14 1 -23 12 -30 37 -46 88 -55 174
-16 157 -93 310 -156 310 -20 0 -24 -3 -18 -17 16 -36 35 -140 34 -188 0 -27
-6 -79 -14 -115 -28 -129 -12 -275 45 -405 12 -27 26 -63 31 -78 l8 -29 -26
17 c-73 49 -94 57 -121 50 -106 -26 -217 -194 -243 -369 -26 -172 37 -479 115
-564 45 -50 70 -56 165 -37 47 9 104 15 126 13 38 -3 40 -5 43 -40 l3 -36 -68
-7 c-172 -16 -212 -39 -221 -133 -9 -102 36 -217 161 -402 366 -547 829 -965
1367 -1235 217 -109 497 -212 722 -266 l97 -23 3 -65 c2 -53 6 -66 21 -69 15
-3 17 5 17 60 l0 64 98 -17 c53 -10 98 -18 100 -19 1 0 2 -29 2 -65 0 -58 2
-65 20 -65 18 0 20 7 20 63 l0 63 98 -14 c130 -19 534 -19 665 0 l97 14 0 -63
c0 -44 4 -63 13 -63 25 0 246 38 256 45 6 3 11 34 11 69 l0 62 98 23 c384 92
787 272 1122 502 285 195 593 493 822 795 102 134 209 296 247 371 78 157 80
297 3 337 -25 13 -165 36 -220 36 -9 0 -12 12 -10 38 3 35 5 37 43 40 22 2 79
-4 126 -13 95 -19 120 -13 165 37 78 85 141 392 115 564 -20 138 -96 280 -181
339 -22 15 -40 30 -40 32 0 2 34 43 75 91 237 276 458 603 428 633 -21 21
-260 -129 -463 -292 l-107 -85 -16 86 c-10 48 -17 107 -17 131 0 44 20 148 35
182 6 14 2 17 -18 17 -63 0 -140 -153 -156 -310 -9 -86 -25 -137 -55 -174 -9
-11 -19 -16 -23 -12 -5 4 -7 63 -5 130 2 105 0 131 -18 179 -22 59 -125 201
-139 192 -5 -2 0 -49 10 -102 34 -183 22 -276 -66 -538 -30 -88 -58 -182 -61
-210 -6 -49 -9 -53 -223 -270 -120 -121 -327 -334 -460 -472 -204 -212 -248
-253 -271 -253 -33 0 -78 -47 -87 -91 -6 -34 -13 -35 -70 -13 -37 14 -43 21
-43 45 0 17 -12 42 -29 61 -16 18 -32 47 -35 65 -11 49 -190 215 -299 278
l-87 50 0 157 0 157 78 -77 c87 -88 125 -112 150 -96 22 15 51 99 52 153 0 41
1 43 18 29 36 -32 150 -78 196 -78 17 0 18 7 14 80 -4 71 -3 80 11 74 50 -21
91 -33 131 -36 l45 -3 3 38 c2 21 -3 58 -11 82 l-15 42 45 -13 c25 -7 68 -15
96 -16 l52 -3 -3 42 c-1 23 -11 62 -21 87 l-20 44 32 -9 c18 -5 62 -9 99 -9
81 0 83 4 39 96 l-28 60 82 0 c46 -1 86 2 90 6 12 12 -6 68 -39 117 l-33 49
79 4 c43 3 84 10 90 16 16 16 -10 70 -62 126 l-41 44 53 7 c69 9 126 25 138
40 14 17 -41 97 -91 134 l-40 29 51 11 c62 13 145 48 161 67 15 18 -15 53 -80
94 l-43 27 34 7 c54 10 124 62 158 117 16 27 30 56 30 63 0 8 -16 20 -35 26
l-36 12 41 29 c51 37 86 91 100 154 10 45 9 51 -8 65 -18 14 -18 16 14 60 57
80 71 172 27 178 -21 3 -21 5 12 47 34 45 55 115 55 181 0 28 -5 37 -20 41
-12 3 -19 8 -17 12 44 82 59 128 60 189 2 64 1 67 -21 66 -17 0 -21 3 -16 15
39 88 46 128 41 232 -2 59 -7 112 -11 118 -4 6 -18 11 -31 11 -21 0 -23 4 -19
33 2 17 -4 77 -13 132 l-18 100 -32 3 c-27 3 -33 8 -33 27 0 67 -87 245 -120
245 -10 0 -31 -24 -338 -400 -550 -674 -716 -889 -887 -1148 -128 -195 -157
-252 -162 -325 -3 -34 0 -80 6 -103 15 -55 64 -127 107 -155 31 -21 35 -28 30
-56 -6 -43 -50 -129 -92 -179 -60 -74 -191 -144 -288 -156 -26 -3 -30 1 -43
37 -8 22 -19 87 -23 145 -5 58 -16 125 -25 149 -19 54 -19 61 -1 61 28 0 26
20 -9 89 -31 63 -35 79 -35 149 0 89 -19 162 -54 215 l-25 36 29 18 c56 33 41
46 -122 111 -182 71 -242 86 -334 81 -59 -4 -85 -12 -174 -56 -58 -28 -123
-54 -145 -58 -87 -14 -169 -66 -201 -127 -8 -15 -14 -52 -14 -83 0 -47 3 -55
18 -55 10 0 25 11 32 25 16 30 24 31 57 5 41 -32 97 -43 156 -30 42 9 52 8 59
-4 13 -23 38 -46 80 -72 67 -42 44 -89 -81 -168 -139 -88 -181 -147 -186 -261
-2 -45 -12 -79 -40 -138 l-37 -77 -52 6 c-124 17 -239 81 -312 173 -58 73
-106 201 -76 201 15 0 94 85 115 125 17 32 22 58 22 125 0 80 -2 89 -38 155
-120 217 -350 531 -741 1013 -149 184 -310 382 -358 440 -184 228 -233 286
-244 289 -6 2 -24 -11 -39 -29z m2385 -1467 c48 -17 122 -44 164 -62 l77 -32
-27 -22 -27 -21 32 -44 c42 -58 61 -127 61 -222 0 -65 5 -88 26 -130 15 -29
23 -54 18 -55 -32 -12 -34 -20 -15 -64 22 -49 48 -175 38 -185 -3 -3 -33 10
-66 31 -65 39 -81 39 -81 -1 0 -30 -26 -94 -38 -94 -11 0 -32 45 -32 70 0 45
-30 33 -66 -26 -11 -18 -13 -17 -38 9 -33 36 -46 28 -46 -29 0 -39 -22 -104
-35 -104 -13 0 -35 65 -35 104 0 56 -17 63 -52 22 l-26 -31 -26 24 c-30 28
-42 22 -50 -23 -15 -81 -58 -60 -66 33 -4 43 -9 57 -22 59 -12 2 -18 -3 -18
-15 0 -10 -11 -31 -25 -48 -24 -29 -25 -29 -40 -11 -8 10 -17 38 -21 62 -3 25
-9 46 -13 48 -4 3 -26 -4 -50 -15 l-44 -19 7 32 c11 55 52 100 153 168 105 70
143 114 143 166 0 34 -16 51 -79 86 -38 21 -42 42 -5 28 38 -15 56 -12 52 7
-7 34 -111 52 -193 33 -41 -9 -109 2 -120 19 -5 9 73 13 188 12 27 -1 82 -13
123 -27 91 -31 115 -27 52 10 -66 39 -102 47 -198 45 -47 0 -110 2 -142 6 -42
6 -64 3 -87 -8 -42 -21 -42 0 2 49 34 40 88 68 150 79 36 7 38 6 50 -24 11
-29 37 -44 37 -20 0 6 9 8 20 4 23 -7 25 -2 9 27 -8 15 -17 18 -37 13 l-27 -6
21 21 c28 29 72 19 80 -19 3 -14 9 -35 14 -46 8 -18 9 -17 9 8 1 25 4 27 39
27 26 0 41 -6 50 -20 17 -27 68 -27 82 1 15 28 8 32 -25 15 -30 -16 -55 -11
-55 10 0 12 4 12 21 2 17 -11 22 -10 34 6 14 18 16 18 50 2 36 -17 65 -16 65
3 0 15 -88 51 -124 51 -18 0 -41 -7 -52 -15 -25 -19 -68 -19 -85 1 -11 14 -9
19 11 35 63 48 183 52 310 10z m-2971 -964 c12 -32 26 -99 31 -149 10 -103 35
-163 87 -208 41 -36 54 -31 72 31 8 27 10 73 6 142 -6 90 -5 109 15 159 12 32
25 60 30 63 4 3 5 -33 3 -79 -8 -116 17 -246 83 -432 86 -248 92 -363 23 -502
-33 -67 -74 -102 -118 -102 -21 0 -261 118 -285 141 -5 4 5 22 23 39 48 49 64
88 69 170 4 78 6 73 -63 255 -36 95 -43 204 -20 318 11 58 16 113 13 159 -6
79 0 78 31 -5z m5693 1 c-2 -46 2 -102 12 -150 27 -129 30 -121 -98 -233 -62
-55 -163 -147 -225 -204 -131 -122 -129 -125 -46 114 65 186 90 316 82 431 -2
46 -1 82 3 79 5 -3 18 -31 30 -63 20 -50 21 -69 15 -159 -6 -105 4 -172 32
-195 11 -9 23 -1 58 35 48 50 75 120 75 192 0 57 47 225 64 225 1 0 1 -33 -2
-72z m551 32 c-13 -10 -23 -25 -23 -34 0 -10 -8 -16 -21 -16 -16 0 -20 -5 -16
-19 3 -15 -1 -21 -17 -23 -15 -2 -20 -9 -18 -25 2 -18 -1 -20 -19 -16 -19 5
-21 3 -17 -20 5 -24 3 -26 -20 -20 -23 5 -24 4 -19 -19 6 -23 4 -25 -19 -20
-22 4 -24 2 -19 -20 6 -23 4 -25 -19 -21 -25 5 -26 4 -16 -22 9 -23 8 -26 -5
-21 -8 3 -23 9 -32 13 -13 5 -15 3 -10 -10 4 -9 10 -24 13 -32 5 -13 2 -14
-21 -5 -27 10 -27 10 -22 -20 6 -28 5 -30 -14 -19 -28 14 -35 5 -20 -27 10
-23 9 -26 -4 -20 -8 3 -22 9 -30 12 -17 7 -19 -9 -5 -37 10 -18 9 -18 -17 -7
-15 6 -41 23 -56 37 l-28 25 -684 -684 c-639 -639 -685 -683 -699 -665 -13 18
14 48 374 419 504 521 820 819 1138 1074 142 114 373 275 382 266 3 -3 -5 -14
-17 -24z m-465 -473 c10 -8 -144 -168 -655 -679 -367 -367 -673 -668 -680
-668 -7 0 -17 9 -24 21 -10 19 -8 20 10 14 17 -5 20 -3 14 11 -5 13 -2 15 16
9 20 -6 22 -5 12 13 -9 17 -8 19 9 15 16 -4 19 -2 13 13 -5 14 -3 16 11 11 15
-6 17 -3 13 13 -4 17 -2 18 15 9 17 -9 19 -8 13 10 -5 17 -3 20 11 14 13 -5
15 -2 9 16 -6 21 -5 22 15 11 20 -11 21 -10 15 9 -5 17 -3 20 11 14 13 -5 15
-2 9 18 -7 21 -6 22 9 10 21 -18 33 -6 15 15 -12 15 -11 16 10 9 21 -6 22 -5
16 17 -6 19 -5 21 6 11 20 -20 31 -15 18 8 -10 19 -9 20 12 14 18 -6 21 -4 16
9 -6 14 -3 16 14 11 19 -6 20 -5 9 15 -11 20 -10 21 9 15 17 -5 20 -3 14 11
-5 13 -2 15 16 9 21 -6 22 -5 11 15 -11 20 -10 21 10 10 20 -11 21 -10 15 11
-6 18 -4 21 9 16 14 -6 16 -3 11 14 -6 19 -5 20 15 9 20 -11 21 -10 15 9 -5
17 -3 20 11 14 13 -5 15 -2 9 16 -6 21 -5 22 14 12 23 -13 28 -2 9 18 -11 11
-9 12 10 6 22 -6 23 -5 17 17 -6 19 -5 21 6 11 20 -20 31 -15 18 8 -10 19 -9
20 12 14 18 -6 21 -4 16 9 -6 14 -3 16 14 11 19 -6 20 -5 9 15 -11 20 -10 21
11 15 18 -6 21 -4 16 9 -6 14 -3 16 14 11 18 -6 19 -4 10 13 -9 17 -8 19 9 15
16 -4 19 -2 13 13 -5 14 -3 16 11 11 15 -6 17 -3 13 13 -4 17 -2 18 15 9 17
-9 19 -8 13 10 -5 17 -3 20 11 14 13 -5 15 -2 9 16 -6 21 -5 22 15 11 20 -11
21 -10 15 9 -5 17 -3 20 11 14 13 -5 15 -2 9 16 -6 21 -5 22 14 12 23 -13 28
-2 9 18 -11 11 -9 12 10 6 22 -6 23 -5 17 17 -6 19 -5 21 6 11 20 -20 31 -15
18 8 -10 19 -9 20 12 14 18 -6 21 -4 16 9 -6 14 -3 16 14 11 19 -6 20 -5 9 15
-11 20 -10 21 9 15 17 -5 20 -3 14 11 -5 13 -2 15 16 9 21 -6 22 -5 11 15 -11
20 -10 21 10 10 20 -11 21 -10 15 11 -6 18 -4 21 9 16 14 -6 16 -3 11 14 -6
19 -5 20 15 9 20 -11 21 -10 15 9 -5 17 -3 20 11 14 13 -5 15 -2 9 16 -6 21
-5 22 14 12 23 -13 28 -2 9 18 -11 11 -9 12 10 6 22 -6 23 -5 17 17 -6 19 -5
21 6 11 20 -20 31 -15 18 8 -10 19 -9 20 12 14 18 -6 21 -4 16 9 -6 14 -3 16
14 11 19 -6 20 -5 9 15 -11 20 -10 21 11 15 18 -6 21 -4 16 9 -6 14 -3 16 14
11 18 -6 19 -4 10 13 -9 17 -8 19 9 15 16 -4 19 -2 13 13 -5 14 -3 16 11 11
15 -6 17 -3 13 13 -4 17 -2 18 15 9 17 -9 19 -8 13 10 -5 17 -3 20 11 14 13
-5 15 -2 9 17 -7 23 0 22 33 -3z m-5893 -217 c4 -11 -5 -46 -20 -82 -43 -100
-50 -133 -38 -161 8 -16 49 -45 126 -86 l115 -61 6 -53 c4 -30 13 -77 21 -106
15 -60 21 -57 -107 -65 -42 -2 -85 -9 -96 -15 -27 -14 -34 -52 -23 -126 10
-69 1 -101 -32 -116 -19 -9 -31 -7 -56 6 -62 32 -108 166 -132 391 -14 131 0
222 52 330 56 119 165 204 184 144z m5994 -28 c59 -59 107 -157 128 -260 13
-65 14 -93 4 -186 -24 -225 -70 -359 -132 -391 -25 -13 -37 -15 -56 -6 -33 15
-42 47 -32 116 11 74 4 112 -23 126 -11 6 -54 13 -96 15 -128 8 -122 5 -107
65 8 29 17 76 21 106 l6 53 115 61 c77 41 118 70 126 86 12 28 5 61 -38 161
-30 72 -27 102 11 102 16 0 41 -16 73 -48z m-5882 -48 c15 -39 -67 -164 -108
-164 -33 0 -32 21 7 120 l39 98 28 -20 c16 -11 31 -26 34 -34z m2495 -146 l3
-173 48 -3 c42 -3 47 -1 47 17 0 17 -6 21 -30 21 l-30 0 0 155 0 155 75 0 75
0 2 -172 3 -173 48 -3 c42 -3 47 -1 47 17 0 17 -6 21 -30 21 l-30 0 0 155 0
155 75 0 75 0 0 -164 c0 -184 2 -189 67 -184 49 4 53 32 6 36 l-33 3 0 155 0
154 80 0 80 0 2 -172 3 -173 48 -3 c42 -3 47 -1 47 17 0 17 -6 21 -30 21 l-30
0 0 155 0 155 100 0 100 0 0 -275 0 -275 -480 0 -480 0 0 275 0 275 70 0 70 0
2 -172z m3277 88 c18 -46 30 -89 27 -95 -14 -22 -44 -11 -80 29 -51 56 -55 84
-20 121 15 16 30 29 34 29 3 0 20 -38 39 -84z m-3459 -205 l0 -269 -110 -41
c-61 -22 -115 -41 -120 -41 -6 0 -10 96 -10 250 0 239 1 250 20 260 20 10 20
8 20 -140 0 -143 1 -150 20 -150 19 0 20 7 20 160 l0 160 33 20 32 20 5 -163
c4 -135 7 -162 20 -162 13 0 15 27 18 170 2 145 5 172 19 183 9 6 20 12 25 12
4 0 8 -121 8 -269z m1120 73 c0 -103 -4 -164 -10 -164 -6 0 -10 64 -10 171 0
111 3 168 10 164 6 -4 10 -72 10 -171z m108 -42 c2 -131 0 -152 -13 -152 -13
0 -15 23 -15 156 0 120 3 155 13 152 9 -4 13 -46 15 -156z m2106 129 c9 -16
30 -43 47 -61 18 -17 28 -35 23 -39 -22 -21 -263 -141 -282 -141 -59 0 -54 10
70 141 68 70 124 128 125 128 1 1 9 -12 17 -28z m-4699 -281 c-20 -22 -19 -29
7 -57 l22 -23 -27 -28 -27 -28 33 -32 33 -32 27 27 26 27 24 -22 24 -22 18 20
c13 14 22 17 29 10 7 -7 -1 -21 -24 -45 l-34 -35 -21 20 -21 20 -34 -35 c-32
-33 -33 -36 -17 -53 22 -24 21 -35 -1 -55 -17 -15 -24 -10 -122 88 l-105 105
22 22 23 22 25 -24 25 -24 35 34 35 34 -27 28 -27 28 34 35 c26 27 37 32 47
23 11 -9 11 -14 -2 -28z m4599 8 c-9 -47 -32 -139 -37 -144 -5 -5 -206 14
-218 22 -16 10 -73 -33 -107 -80 -114 -159 -135 -378 -45 -459 12 -11 46 -21
82 -25 l62 -7 -70 -107 c-279 -429 -645 -754 -1108 -987 -116 -58 -348 -150
-453 -181 -41 -12 -83 -24 -92 -26 -17 -5 -18 6 -18 126 l0 131 33 27 c80 67
141 130 181 191 24 36 62 83 86 105 36 32 47 37 73 32 37 -7 67 -33 67 -56 0
-10 12 -29 26 -44 20 -19 37 -26 67 -26 88 0 131 99 70 162 -15 15 -34 28 -43
28 -9 0 -25 8 -34 19 -16 18 -12 23 85 127 84 89 109 110 135 112 18 2 42 14
54 28 16 16 34 24 57 24 34 0 73 29 73 54 0 8 13 19 29 24 39 14 53 43 49 105
l-3 52 404 390 c222 215 409 388 415 386 43 -14 96 -12 132 7 52 28 54 27 48
-10z m-4939 -98 c-10 -11 -22 -20 -27 -20 -5 0 -4 9 2 20 6 11 18 20 27 20 14
0 14 -2 -2 -20z m204 -173 c111 -113 142 -150 133 -159 -9 -9 -12 -8 -12 6 0
10 -4 14 -12 10 -7 -4 -8 -3 -4 4 4 7 0 12 -10 12 -10 0 -15 3 -11 6 8 9 -56
72 -67 66 -5 -3 -6 0 -2 6 4 7 1 12 -9 12 -9 0 -14 3 -12 8 6 9 -59 72 -67 65
-3 -4 -6 1 -6 11 0 10 -5 14 -12 10 -7 -4 -8 -3 -4 4 4 7 0 12 -10 12 -10 0
-14 3 -11 6 3 4 -7 19 -23 34 -17 16 -30 31 -30 35 0 20 39 -14 169 -148z
m-381 67 c17 -20 42 -59 57 -86 l27 -50 -48 -49 -48 -49 36 -37 c35 -35 38
-36 56 -20 27 25 32 21 32 -20 0 -48 -28 -104 -60 -120 -17 -9 -82 -13 -208
-13 l-183 0 7 23 c12 33 8 159 -6 219 -16 68 -55 157 -81 185 l-21 21 54 6
c53 5 266 21 325 24 25 2 38 -5 61 -34z m5037 21 c55 -3 124 -8 153 -11 l54
-6 -21 -21 c-28 -31 -66 -120 -81 -192 -14 -67 -17 -178 -6 -212 l7 -23 -183
0 c-204 0 -223 5 -250 60 -44 87 1 273 93 384 32 37 34 38 83 32 28 -3 96 -8
151 -11z m-3135 -57 c6 -24 13 -50 16 -60 4 -13 -14 -22 -88 -47 -51 -17 -96
-31 -100 -31 -8 0 -71 90 -66 95 4 4 211 83 220 84 4 1 12 -18 18 -41z m1125
2 c44 -22 69 -37 55 -34 -80 20 -187 73 -150 74 9 0 52 -18 95 -40z m-3472
-23 c23 -31 57 -107 57 -127 0 -6 -28 -10 -62 -10 l-63 0 -3 85 c-2 47 0 90 3
95 9 15 40 -5 68 -43z m5765 -48 l-3 -89 -64 0 c-63 0 -63 0 -57 26 20 77 91
174 117 158 6 -3 9 -45 7 -95z m-3329 70 c7 11 11 10 19 -5 10 -18 11 -18 18
-1 6 16 7 16 19 1 11 -16 12 -15 19 2 6 16 9 16 17 4 8 -13 10 -13 18 0 8 12
11 12 17 -4 7 -17 8 -18 19 -2 12 15 13 15 19 -1 7 -17 8 -17 18 1 8 15 12 16
19 5 8 -12 10 -12 18 0 7 11 11 10 19 -5 10 -18 11 -18 18 -1 5 14 9 15 15 6
6 -10 11 -10 22 0 12 9 16 9 20 -1 4 -11 7 -10 15 0 7 11 11 10 16 -5 7 -17 8
-17 22 1 8 11 14 15 14 10 0 -6 14 -11 30 -11 17 0 30 5 30 11 0 5 6 1 14 -10
14 -18 15 -18 22 -1 5 15 9 16 16 5 8 -10 11 -11 15 0 4 10 8 10 20 1 11 -10
16 -10 22 0 6 9 10 8 15 -6 7 -17 8 -17 18 1 8 15 12 16 19 5 8 -12 11 -12 18
1 8 12 11 12 17 -4 7 -17 8 -18 19 -2 12 15 13 15 19 -1 7 -17 8 -17 18 1 8
15 12 16 19 5 8 -12 11 -12 18 1 8 12 11 12 17 -4 7 -17 8 -18 19 -2 12 15 13
15 19 -1 7 -17 8 -17 18 1 8 15 12 16 19 5 7 -12 10 -12 18 -1 12 19 23 -12
15 -44 l-6 -24 -438 0 c-430 0 -439 0 -445 20 -3 11 -3 30 0 41 6 17 9 19 16
8 8 -12 10 -12 18 0z m-1576 -251 l-23 -22 -23 22 -23 22 -34 -35 c-33 -34
-33 -35 -15 -55 18 -20 18 -21 -15 -55 -22 -23 -37 -32 -44 -25 -6 6 -3 17 9
30 18 20 18 21 -3 42 l-22 22 27 28 27 28 -32 32 -32 32 -28 -27 -28 -27 -27
27 c-26 26 -27 26 -47 8 -16 -14 -23 -16 -32 -7 -9 9 -4 20 22 47 l34 35 28
-27 28 -27 35 34 35 34 -25 26 -25 26 22 22 23 22 105 -105 105 -105 -22 -22z
m1717 7 l0 -135 -80 0 -80 0 0 135 0 135 80 0 80 0 0 -135z m500 0 l0 -135
-230 0 -230 0 0 135 0 135 230 0 230 0 0 -135z m200 0 l0 -135 -80 0 -80 0 0
135 0 135 80 0 80 0 0 -135z m-900 -8 l0 -133 -77 -18 c-43 -10 -88 -20 -100
-23 -23 -5 -23 -5 -23 119 l0 124 93 31 c50 17 95 32 100 32 4 1 7 -59 7 -132z
m-1350 50 c0 -2 -16 -18 -35 -37 -19 -19 -35 -28 -35 -22 0 16 45 62 60 62 5
0 10 -1 10 -3z m-385 -67 l-29 -30 24 -25 c23 -24 23 -25 5 -45 -19 -20 -18
-21 18 -58 l37 -36 55 54 c30 30 55 59 55 64 0 5 -7 17 -16 27 -26 29 -6 44
22 18 l24 -23 33 32 c35 34 47 39 47 20 0 -15 70 -88 85 -88 6 0 43 -33 83
-73 l73 -73 -16 -37 c-30 -72 -13 -138 40 -151 14 -4 25 -13 25 -21 0 -26 38
-55 73 -55 23 0 41 -8 57 -25 26 -27 77 -34 98 -13 10 10 30 -5 93 -67 44 -44
86 -93 94 -109 14 -26 13 -30 -10 -58 -21 -25 -45 -84 -45 -113 0 -30 24 -88
47 -116 79 -93 220 -88 292 12 17 23 31 48 31 55 0 7 23 25 52 41 103 55 141
161 94 257 -52 105 -215 129 -294 43 -21 -23 -26 -24 -50 -11 -15 7 -74 60
-130 117 -130 131 -131 138 -17 179 72 27 84 28 122 18 31 -9 50 -9 73 -1 23
8 38 8 52 0 11 -6 37 -8 57 -5 20 3 51 6 68 6 28 -1 113 20 161 37 9 4 12
-123 12 -616 0 -342 -3 -621 -6 -621 -3 0 -69 21 -147 46 -652 213 -1188 625
-1541 1184 l-47 75 63 7 c53 6 67 12 90 37 15 17 33 49 39 72 12 40 54 95 73
98 6 0 -3 -12 -19 -29z m393 -3 c-18 -19 -35 -29 -37 -23 -4 10 44 56 60 56 5
0 -5 -15 -23 -33z m130 -90 c64 -64 71 -75 58 -87 -13 -10 -16 -10 -16 4 0 9
-10 21 -22 26 -13 5 -19 9 -15 9 4 1 -7 16 -25 35 -18 18 -36 31 -41 29 -4 -3
-6 1 -5 9 2 7 -3 12 -10 10 -8 -1 -11 2 -7 8 3 5 -1 10 -10 10 -9 0 -13 5 -10
10 13 20 32 8 103 -63z m-1098 -27 c-6 -11 -16 -20 -22 -20 -13 0 -78 60 -78
71 0 5 24 9 53 11 47 3 52 1 55 -19 2 -12 -2 -31 -8 -43z m5660 52 c0 -12 -64
-72 -77 -72 -16 0 -33 32 -33 62 0 22 3 23 55 20 30 -2 55 -7 55 -10z m-5766
-62 l53 -50 167 0 167 0 21 -37 c113 -195 282 -406 469 -588 463 -450 1069
-732 1744 -810 598 -69 1306 112 1855 473 352 232 626 510 846 860 l62 97 168
3 168 2 52 50 c76 72 120 66 131 -18 12 -93 -48 -229 -192 -437 -600 -859
-1399 -1355 -2415 -1499 -298 -42 -480 -44 -772 -6 -1041 134 -1859 637 -2473
1520 -47 69 -107 167 -133 218 -41 84 -46 100 -46 166 -1 122 40 140 128 56z
m1457 19 c23 -23 24 -89 0 -97 -10 -3 -12 3 -6 27 6 29 5 31 -22 31 -15 0 -35
4 -43 10 -12 7 -12 12 4 29 24 26 41 26 67 0z m2925 0 c16 -17 16 -22 4 -29
-8 -6 -28 -10 -43 -10 -27 0 -28 -2 -22 -31 6 -24 4 -30 -6 -27 -24 8 -23 74
0 97 26 26 43 26 67 0z m-1536 -219 l0 -180 -195 0 -195 0 0 180 0 180 195 0
195 0 0 -180z m470 0 l0 -180 -210 0 -210 0 0 180 0 180 210 0 210 0 0 -180z
m-900 -5 l0 -174 -37 -10 c-21 -6 -41 -11 -45 -11 -5 0 -8 79 -8 175 l0 174
33 10 c60 17 57 25 57 -164z m1070 151 l35 -16 -45 6 c-25 4 -58 13 -75 20
l-30 14 40 -4 c22 -2 56 -11 75 -20z m-2116 -1 c-4 -8 -10 -12 -15 -9 -11 6
-2 24 11 24 5 0 7 -7 4 -15z m56 -5 c0 -11 -2 -20 -4 -20 -2 0 -6 9 -9 20 -3
11 -1 20 4 20 5 0 9 -9 9 -20z m279 10 c4 0 6 -13 3 -28 -3 -25 -12 -31 -92
-59 -48 -17 -91 -29 -94 -26 -12 12 -6 33 10 33 13 0 14 3 4 15 -10 12 -7 13
19 5 32 -9 39 -2 20 17 -8 8 0 10 31 6 33 -5 41 -3 35 7 -6 9 0 10 26 5 l34
-7 -20 22 c-18 21 -18 23 -2 17 10 -4 22 -7 26 -7z m2385 -11 l-19 -21 34 7
c26 5 32 4 26 -5 -6 -10 2 -12 35 -7 l43 6 -26 -26 c-24 -25 -27 -25 -70 -13
-38 10 -46 17 -49 41 -3 20 0 29 11 32 32 9 34 7 15 -14z m269 1 c-3 -11 -7
-20 -9 -20 -2 0 -4 9 -4 20 0 11 4 20 9 20 5 0 7 -9 4 -20z m62 11 c3 -5 1
-12 -4 -15 -5 -3 -11 1 -15 9 -6 16 9 21 19 6z m-2135 -185 c0 -186 0 -186
-51 -186 -18 0 -19 9 -19 174 0 191 -4 178 58 185 9 1 12 -40 12 -173z m-943
138 c3 -10 -7 -29 -30 -52 -19 -20 -42 -52 -51 -70 -20 -39 -40 -38 -44 2 -5
38 15 82 50 111 34 28 66 32 75 9z m3161 -9 c35 -29 55 -73 50 -111 -4 -40
-24 -41 -44 -2 -9 18 -32 50 -51 70 -58 59 -19 97 45 43z m-243 -17 c-5 -24
-36 -62 -106 -133 l-99 -101 45 -44 c52 -51 57 -67 15 -45 -35 18 -41 5 -14
-33 18 -26 12 -28 -22 -6 -33 22 -42 10 -20 -27 l18 -31 -32 17 c-38 20 -46
15 -30 -17 7 -12 -17 6 -53 41 l-65 64 91 86 c51 47 133 125 182 173 50 48 91
88 93 88 2 0 1 -15 -3 -32z m-2823 -10 c-7 -7 -12 -8 -12 -2 0 6 3 14 7 17 3
4 9 5 12 2 2 -3 -1 -11 -7 -17z m2908 1 c0 -6 -4 -7 -10 -4 -5 3 -10 11 -10
16 0 6 5 7 10 4 6 -3 10 -11 10 -16z m-667 -13 c56 -16 71 -18 172 -17 28 0
61 0 75 0 36 -1 84 0 129 3 22 1 43 -1 48 -6 10 -10 -225 -238 -240 -233 -7 2
-20 19 -29 38 -36 72 -89 95 -147 65 -76 -40 -62 -146 25 -182 18 -8 39 -27
48 -45 13 -27 14 -35 2 -58 -18 -33 -69 -81 -123 -115 l-43 -26 0 301 c0 237
3 300 13 296 6 -2 38 -12 70 -21z m-2183 5 c0 -6 -4 -13 -10 -16 -5 -3 -10 1
-10 9 0 9 5 16 10 16 6 0 10 -4 10 -9z m2800 -7 c0 -8 -4 -12 -10 -9 -5 3 -10
10 -10 16 0 5 5 9 10 9 6 0 10 -7 10 -16z m-2890 -9 c0 -2 -11 -20 -24 -40
-14 -20 -28 -56 -32 -80 -7 -48 -25 -62 -49 -39 -27 28 12 121 63 149 28 15
42 18 42 10z m3000 -10 c52 -27 93 -121 65 -149 -24 -23 -42 -9 -49 39 -4 24
-18 60 -32 80 -34 51 -32 55 16 30z m-2922 -27 c19 -19 15 -109 -8 -145 -22
-36 -63 -45 -74 -17 -17 45 -1 119 34 154 23 23 31 25 48 8z m2852 -8 c26 -26
40 -62 40 -105 0 -49 -9 -65 -36 -65 -35 0 -64 52 -64 116 0 71 23 91 60 54z
m-109 -91 c10 -19 6 -27 -30 -63 -41 -40 -43 -40 -57 -22 -17 24 -19 45 -2 28
19 -19 30 -14 17 9 -10 19 -9 20 12 14 18 -6 21 -4 16 9 -6 14 -3 16 14 11 18
-6 20 -5 10 14 -8 13 -8 21 -2 21 6 0 15 -10 22 -21z m-2592 -103 c75 -75 92
-106 60 -106 -6 0 -7 5 -4 10 3 6 -2 10 -11 10 -10 0 -15 3 -11 6 7 8 -36 53
-45 47 -5 -2 -8 3 -8 12 0 8 -10 20 -22 25 -13 5 -19 9 -15 9 4 1 -4 12 -18
26 -25 26 -32 45 -17 45 4 0 45 -38 91 -84z m2139 51 c6 -5 12 -17 12 -26 0
-20 329 -351 349 -351 22 0 51 -31 51 -53 0 -27 -28 -57 -53 -57 -25 0 -57 28
-57 49 0 22 -330 351 -352 351 -27 0 -52 44 -39 69 21 38 54 45 89 18z m-1362
-422 c-2 -7 -42 -20 -88 -30 -45 -10 -89 -20 -96 -22 -10 -4 -12 32 -10 173
l3 178 95 21 95 21 3 -165 c1 -91 1 -170 -2 -176z m204 170 l0 -175 -80 0 -80
0 0 175 0 175 80 0 80 0 0 -175z m500 0 l0 -175 -230 0 -230 0 0 175 0 175
230 0 230 0 0 -175z m200 0 l0 -175 -80 0 -80 0 0 175 0 175 80 0 80 0 0 -175z
m154 154 c31 -12 55 -23 54 -25 -7 -6 -131 25 -141 35 -18 18 25 13 87 -10z
m-1472 -9 c31 0 95 -70 103 -113 15 -77 -41 -161 -118 -176 -24 -5 -33 -14
-40 -40 -36 -139 -213 -165 -278 -41 -42 77 -22 123 109 253 95 95 156 133
190 122 8 -3 23 -5 34 -5z m-232 -68 c0 -14 -59 -66 -67 -59 -3 4 6 21 22 37
28 30 45 38 45 22z m2070 -119 c0 -25 -12 -39 -37 -45 -20 -5 -23 -2 -23 22 0
28 10 38 43 39 10 1 17 -6 17 -16z m-96 -57 c-3 -9 -13 -16 -22 -16 -13 0 -12
3 3 20 20 23 29 21 19 -4z m156 0 c0 -16 -26 -46 -40 -46 -12 0 -18 49 -6 54
23 9 46 5 46 -8z m-90 -30 c0 -28 -12 -46 -31 -46 -13 0 -19 7 -19 23 0 13 3
27 7 30 12 13 43 7 43 -7z m-90 -33 c0 -25 -12 -39 -37 -45 -26 -7 -30 10 -13
43 13 24 50 26 50 2z m-80 -30 c0 -27 -12 -39 -42 -45 -22 -4 -28 -1 -28 13 0
19 35 49 57 49 7 0 13 -8 13 -17z m140 -31 c0 -21 -18 -42 -37 -42 -8 0 -13
12 -13 30 0 25 4 30 25 30 17 0 25 -5 25 -18z m-930 -167 l0 -175 -195 0 -195
0 0 175 0 175 195 0 195 0 0 -175z m468 63 l-3 -112 -33 -7 c-44 -9 -80 -44
-88 -86 l-6 -33 -144 0 -144 0 0 175 0 175 210 0 211 0 -3 -112z m131 98 c23
-8 31 -15 23 -20 -14 -8 -78 10 -87 25 -8 12 23 10 64 -5z m-1029 -169 l0
-174 -45 -10 -45 -10 0 178 0 178 28 4 c67 10 62 24 62 -166z m1270 149 c0
-28 -12 -46 -31 -46 -14 0 -19 7 -19 30 0 25 4 30 25 30 15 0 25 -6 25 -14z
m-1400 -180 c0 -172 0 -174 -22 -180 -49 -13 -48 -16 -48 168 0 188 -2 181 53
185 16 1 17 -14 17 -173z m1308 137 c-2 -20 -9 -29 -25 -31 -18 -3 -23 1 -23
21 0 29 7 37 32 37 15 0 19 -6 16 -27z m-84 -20 c-9 -37 -17 -45 -44 -41 l-23
3 27 33 c34 39 49 41 40 5z m214 -15 c-19 -27 -23 -29 -26 -15 -6 29 6 47 28
47 21 0 21 0 -2 -32z m-72 -33 c-10 -38 -46 -34 -46 4 0 23 5 30 23 33 26 4
31 -4 23 -37z m-90 -41 c-3 -8 -15 -14 -26 -14 -29 0 -28 48 3 59 18 7 23 5
25 -11 2 -11 1 -26 -2 -34z m-90 -30 c-3 -8 -15 -14 -26 -14 -29 0 -28 48 3
59 18 7 23 5 25 -11 2 -11 1 -26 -2 -34z m154 10 c-22 -25 -50 -37 -50 -20 0
8 12 19 28 24 37 14 36 14 22 -4z m-90 -43 c0 -26 -14 -41 -41 -41 -5 0 -9 13
-9 29 0 27 8 34 43 40 4 0 7 -12 7 -28z m-90 -17 c0 -8 -4 -12 -10 -9 -5 3
-10 10 -10 16 0 5 5 9 10 9 6 0 10 -7 10 -16z m-17 -134 c-5 -18 -21 -42 -35
-53 -23 -18 -30 -18 -57 -7 -44 18 -101 84 -101 118 0 38 11 51 56 67 l39 14
53 -53 c50 -50 53 -55 45 -86z m-813 -111 l0 -122 -57 7 c-111 13 -103 3 -103
127 l0 109 80 0 80 0 0 -121z m500 -3 l0 -123 -61 -7 c-79 -8 -244 -8 -331 1
l-68 6 0 123 0 124 230 0 230 0 0 -124z m73 91 c-3 -24 1 -39 18 -61 20 -25
27 -28 66 -23 l43 5 0 -53 c0 -61 1 -60 -93 -70 l-67 -7 0 121 c0 113 1 121
19 121 17 0 19 -5 14 -33z m-773 -77 c0 -55 -4 -100 -9 -100 -12 0 -150 29
-173 36 -15 4 -18 17 -18 63 l0 57 88 21 c48 11 93 21 100 22 9 1 12 -25 12
-99z m1080 70 c12 -8 11 -10 -7 -10 -13 0 -23 5 -23 10 0 13 11 13 30 0z"/>
<path d="M4852 6092 c6 -7 32 -25 57 -39 92 -53 102 -73 39 -73 -41 -1 -42 -1
-23 -16 43 -32 114 2 89 44 -6 9 -47 35 -92 58 -45 22 -76 34 -70 26z"/>
<path d="M4753 5537 c-16 -34 -17 -57 -3 -57 15 0 22 23 18 56 l-3 29 -12 -28z"/>
<path d="M5291 5513 c-1 -24 3 -43 8 -43 19 0 21 19 7 52 l-14 33 -1 -42z"/>
<path d="M4967 5534 c-11 -11 -8 -84 3 -84 6 0 13 6 16 14 7 18 -9 79 -19 70z"/>
<path d="M5187 5534 c-10 -10 -9 -84 2 -84 5 0 11 6 14 13 7 19 -6 80 -16 71z"/>
<path d="M4867 5516 c-10 -27 -8 -66 3 -66 16 0 21 22 12 55 -7 24 -9 26 -15
11z"/>
<path d="M5077 5495 c-7 -40 0 -68 14 -59 11 7 11 65 0 82 -5 9 -10 2 -14 -23z"/>
<path d="M2480 3298 c0 -19 -15 -35 -68 -71 -37 -26 -75 -47 -85 -47 -20 0
-20 -1 8 -47 22 -36 38 -43 33 -16 -4 23 130 125 154 117 25 -7 23 0 -12 48
-28 38 -30 39 -30 16z"/>
<path d="M7507 3287 c-17 -27 -17 -28 23 -100 22 -41 40 -76 40 -79 0 -3 -37
2 -82 12 l-83 19 -22 -25 c-24 -26 -34 -59 -11 -36 7 7 18 12 26 12 21 0 142
-100 142 -117 0 -13 3 -13 16 -3 8 8 20 22 26 33 9 17 8 19 -6 14 -10 -4 -29
-1 -44 7 -32 16 -76 63 -52 54 33 -12 132 -29 137 -24 3 3 -11 35 -31 71 -20
36 -36 68 -36 71 0 9 89 -56 98 -72 7 -13 13 -9 35 20 15 19 27 36 27 39 0 2
-12 2 -27 0 -36 -4 -145 71 -153 106 l-6 24 -17 -26z"/>
<path d="M2547 3191 c6 -23 -94 -111 -136 -120 l-30 -6 30 -35 c26 -29 30 -31
26 -12 -4 17 6 32 46 67 28 24 53 43 55 40 2 -2 -4 -49 -13 -104 -9 -56 -15
-105 -13 -110 1 -6 39 17 83 50 43 33 86 58 95 57 28 -6 21 -52 -20 -141 -36
-79 -48 -117 -35 -117 2 0 48 16 101 35 53 19 107 35 120 35 31 0 30 2 -7 42
-28 29 -31 30 -26 10 4 -16 -1 -27 -17 -37 -29 -19 -108 -47 -114 -40 -10 9
52 127 70 134 14 5 10 13 -22 49 -22 24 -51 57 -66 75 l-26 32 6 -27 c5 -23
-1 -32 -39 -64 -25 -20 -47 -35 -49 -33 -2 2 4 48 12 101 15 93 15 98 -3 118
-23 25 -35 26 -28 1z"/>
<path d="M7315 3039 l-30 -32 26 7 c22 5 35 -2 78 -42 40 -38 51 -55 51 -79 0
-34 -38 -73 -71 -73 -25 0 -129 98 -122 116 10 27 -14 14 -46 -26 -32 -40 -32
-41 -8 -35 19 5 36 -4 82 -44 72 -63 102 -66 151 -17 28 28 34 42 34 76 0 37
-6 47 -54 96 -30 29 -56 61 -58 70 -2 12 -10 8 -33 -17z"/>
<path d="M7115 2823 c-25 -30 -26 -35 -9 -29 15 5 33 -8 81 -57 34 -34 63 -70
65 -80 2 -15 10 -11 43 23 40 41 40 41 12 34 -26 -6 -35 0 -88 55 -32 34 -59
69 -59 77 0 22 -12 16 -45 -23z"/>
<path d="M2887 2824 c-4 -4 -2 -13 4 -20 8 -9 -3 -28 -43 -73 -29 -33 -63 -63
-75 -66 -13 -4 -23 -10 -23 -14 0 -15 101 -101 118 -101 10 0 27 7 38 15 18
14 18 14 -11 15 -34 0 -75 24 -75 44 0 7 11 23 25 36 20 19 27 21 40 10 8 -7
15 -21 15 -31 0 -26 11 -23 38 12 23 28 23 29 4 29 -54 0 -66 24 -29 58 l23
22 23 -24 c16 -17 22 -32 18 -46 -6 -25 11 -23 27 3 9 14 0 28 -50 77 -33 34
-63 58 -67 54z"/>
<path d="M7015 2726 c-16 -8 -48 -32 -70 -55 l-39 -41 26 0 c34 0 141 -120
131 -147 -4 -10 9 -4 35 17 48 38 52 49 18 43 -18 -4 -29 3 -45 26 -19 27 -20
32 -7 37 8 3 38 -2 65 -11 38 -12 55 -14 70 -5 25 13 29 45 5 36 -10 -4 -37 1
-60 10 -38 14 -44 21 -44 45 0 17 -8 34 -22 43 -27 19 -25 19 -63 2z m36 -36
c24 -14 24 -42 0 -64 -18 -16 -20 -16 -44 16 -19 24 -23 36 -15 45 13 16 33
17 59 3z"/>
<path d="M3036 2666 c4 -18 -5 -37 -42 -82 -26 -33 -48 -60 -50 -62 -2 -3 -16
-6 -43 -11 -8 -1 62 -51 71 -51 5 0 3 8 -4 19 -10 16 -6 27 26 70 21 28 42 51
47 51 5 0 9 -22 9 -49 0 -67 12 -171 19 -171 3 1 33 34 65 75 35 44 67 75 78
75 25 0 22 11 -13 39 -29 23 -54 22 -31 -1 13 -13 -1 -44 -41 -91 l-24 -29 -6
63 c-4 34 -7 80 -7 101 0 29 -6 45 -22 59 -31 25 -40 24 -32 -5z"/>
<path d="M6817 2569 c-69 -52 -81 -65 -49 -55 29 9 136 -131 125 -162 -7 -18
117 67 124 85 7 17 -6 68 -14 59 -4 -4 -8 -16 -10 -28 -4 -25 -31 -58 -48 -58
-15 0 -55 42 -55 58 0 17 36 33 56 25 15 -6 14 -2 -5 25 -25 36 -41 41 -41 13
0 -10 -7 -24 -15 -31 -12 -10 -18 -8 -35 11 -26 32 -25 42 8 61 19 12 32 14
45 7 22 -13 22 3 -1 24 -17 16 -22 14 -85 -34z"/>
<path d="M3240 2523 c0 -5 5 -14 11 -20 8 -8 -2 -31 -41 -87 -28 -41 -59 -76
-68 -78 -10 -2 -2 -12 26 -30 49 -33 56 -34 41 -10 -10 16 -4 31 39 95 29 41
59 77 69 79 13 2 8 10 -22 28 -52 32 -55 33 -55 23z"/>
<path d="M6640 2447 c-56 -37 -61 -42 -40 -45 32 -4 124 -139 114 -167 -8 -21
-2 -19 48 15 43 28 48 41 16 37 -17 -1 -33 14 -70 67 -26 38 -48 73 -48 78 0
5 11 14 25 20 21 9 28 8 45 -7 24 -21 26 -48 5 -65 -25 -21 -17 -31 14 -16 47
25 57 84 19 110 -34 24 -58 19 -128 -27z"/>
<path d="M3328 2404 c-36 -19 -58 -63 -58 -113 0 -31 7 -46 30 -69 55 -56 129
-54 180 4 23 27 30 44 30 78 0 88 -102 144 -182 100z m119 -30 c21 -21 25 -32
20 -64 -6 -47 -33 -85 -70 -101 -24 -10 -32 -9 -55 8 -31 23 -36 41 -28 88 8
41 56 95 85 95 12 0 34 -12 48 -26z"/>
<path d="M6533 2375 c-19 -13 -20 -21 -15 -101 6 -99 12 -97 -81 -26 -54 41
-60 43 -88 32 -35 -15 -37 -27 -6 -32 27 -4 90 -117 89 -159 l-1 -28 37 22
c33 20 34 22 14 27 -19 4 -79 87 -70 96 2 1 30 -18 63 -42 l60 -45 3 83 3 83
29 -50 c16 -28 27 -58 24 -67 -5 -16 0 -15 40 5 51 25 56 34 24 39 -16 2 -36
25 -67 75 -36 60 -42 75 -31 88 16 19 1 19 -27 0z"/>
<path d="M3700 2250 c0 -5 5 -10 10 -10 18 0 11 -33 -22 -107 -17 -40 -38 -73
-45 -73 -26 0 -12 -16 32 -38 48 -23 52 -22 34 6 -9 14 -4 34 26 99 21 45 45
84 54 86 11 3 7 7 -14 15 -16 7 -38 17 -47 22 -22 13 -28 13 -28 0z"/>
<path d="M6235 2227 c-36 -19 -38 -22 -16 -25 18 -3 31 -20 58 -79 19 -41 32
-84 30 -94 -6 -23 -10 -23 49 3 45 20 47 22 24 28 -33 7 -107 154 -89 176 17
21 -9 17 -56 -9z"/>
<path d="M3824 2181 c16 -18 15 -23 -14 -100 -19 -49 -37 -81 -46 -81 -8 0
-14 -3 -14 -8 0 -9 73 -32 80 -25 3 3 -1 8 -7 10 -7 3 -13 12 -13 22 0 23 30
110 40 116 4 2 25 -40 46 -95 21 -55 43 -99 48 -97 4 1 23 41 42 87 19 47 41
90 50 97 14 10 11 14 -21 28 -43 17 -55 14 -32 -10 11 -11 13 -23 7 -43 -12
-42 -29 -82 -34 -82 -2 0 -21 42 -41 94 -36 94 -47 105 -94 106 -11 0 -10 -4
3 -19z"/>
<path d="M5902 2103 c-80 -39 -81 -171 -1 -213 61 -33 162 17 175 86 20 105
-76 175 -174 127z m95 -37 c32 -29 37 -39 37 -81 1 -40 -3 -50 -26 -68 -26
-20 -30 -20 -61 -5 -37 18 -67 69 -67 115 0 33 8 45 35 61 31 18 42 15 82 -22z"/>
<path d="M4069 2096 c6 -7 16 -51 21 -97 13 -108 20 -139 29 -139 5 0 39 38
77 85 38 46 78 87 88 91 24 8 9 18 -44 29 -34 7 -34 7 -18 -12 16 -18 16 -20
0 -44 -25 -38 -72 -92 -76 -88 -2 2 -7 37 -11 76 -6 65 -5 74 11 80 14 5 11 9
-17 19 -49 18 -75 18 -60 0z"/>
<path d="M5738 2056 c-45 -14 -59 -26 -30 -26 17 0 25 -11 39 -57 9 -32 17
-77 17 -101 1 -42 1 -42 31 -36 66 13 70 15 44 28 -17 8 -27 29 -41 81 -10 39
-16 82 -13 98 5 30 5 30 -47 13z"/>
<path d="M4310 2043 c0 -2 5 -12 12 -22 15 -24 -15 -170 -38 -187 -11 -9 1
-15 61 -29 72 -17 76 -17 95 0 11 10 20 24 20 32 0 11 -5 10 -24 -2 -32 -21
-80 -16 -84 8 -11 58 31 89 61 47 14 -21 14 -21 21 2 3 13 6 31 6 41 0 14 -3
15 -19 6 -25 -16 -51 -4 -51 23 0 37 14 51 41 43 32 -10 50 -25 43 -36 -3 -5
0 -9 5 -9 6 0 12 7 13 15 0 8 1 20 2 27 1 6 -34 18 -81 28 -46 9 -83 15 -83
13z"/>
<path d="M5620 2029 c-19 -4 -61 -13 -92 -19 -50 -10 -58 -15 -58 -33 0 -12 5
-29 10 -37 8 -12 10 -11 10 7 0 12 9 27 19 33 41 22 48 13 65 -76 15 -82 15
-88 -2 -101 -15 -12 -10 -13 38 -7 66 8 84 16 50 24 -25 6 -31 23 -54 144 -6
32 -4 36 19 42 18 4 32 1 45 -11 21 -19 24 -15 14 23 -7 24 -11 24 -64 11z"/>
<path d="M4527 1982 c-10 -10 -17 -33 -17 -50 0 -26 8 -36 46 -62 48 -34 56
-62 22 -84 -13 -8 -23 -5 -43 14 -14 13 -25 29 -25 36 0 7 -4 16 -10 19 -6 4
-10 -8 -10 -30 0 -32 4 -38 35 -51 43 -18 81 -4 104 38 20 36 4 69 -49 103
-49 31 -51 60 -5 60 24 0 33 -7 47 -35 14 -28 18 -30 18 -13 0 12 2 28 5 35 4
9 -6 18 -28 26 -46 17 -71 15 -90 -6z"/>
<path d="M5321 1883 c-18 -60 -38 -114 -43 -120 -8 -10 -1 -13 31 -13 22 0 41
5 41 10 0 6 -7 10 -15 10 -18 0 -20 41 -3 58 7 7 26 12 43 12 24 0 35 -6 43
-25 7 -15 8 -27 2 -30 -23 -14 -6 -22 38 -17 58 6 61 9 35 27 -11 8 -43 55
-72 104 -29 50 -56 91 -60 91 -4 0 -22 -48 -40 -107z m69 -15 c0 -5 -11 -8
-25 -8 -27 0 -28 3 -18 39 l6 24 18 -24 c10 -13 19 -27 19 -31z"/>
<path d="M4677 1974 c-4 -4 -7 -21 -6 -38 0 -29 1 -30 11 -9 20 42 85 41 74 0
-3 -12 -6 -48 -6 -79 0 -46 -4 -61 -22 -78 l-22 -20 40 0 c21 0 49 -3 62 -6
12 -4 22 -2 22 4 0 5 -9 12 -20 15 -22 6 -24 24 -14 126 6 56 9 61 30 61 13 0
29 -9 36 -20 7 -11 16 -20 20 -20 10 0 10 47 1 53 -15 8 -199 18 -206 11z"/>
<path d="M4900 1960 c0 -5 7 -10 15 -10 18 0 18 -3 15 -105 -1 -44 -7 -86 -12
-92 -8 -10 2 -13 43 -13 47 1 52 2 37 14 -15 11 -18 29 -18 105 0 54 4 91 10
91 6 0 10 5 10 10 0 6 -22 10 -50 10 -27 0 -50 -4 -50 -10z"/>
<path d="M5064 1936 c-30 -30 -34 -40 -34 -86 0 -44 4 -56 29 -81 35 -34 89
-39 146 -12 30 14 35 22 35 50 0 18 5 33 11 33 5 0 8 3 5 8 -2 4 -24 6 -49 4
-44 -4 -45 -4 -26 -23 23 -23 24 -33 3 -53 -54 -55 -133 41 -104 127 20 64 85
68 128 10 l21 -28 1 36 c0 33 -3 37 -31 43 -70 14 -100 7 -135 -28z"/>
<path d="M5813 3214 c-9 -23 10 -48 38 -52 34 -5 359 -329 359 -358 0 -28 24
-47 50 -39 31 10 27 53 -7 67 -32 13 -363 337 -363 355 0 35 -65 58 -77 27z
m47 -3 c0 -6 -4 -13 -10 -16 -5 -3 -10 1 -10 9 0 9 5 16 10 16 6 0 10 -4 10
-9z m400 -401 c0 -5 -7 -10 -15 -10 -8 0 -15 5 -15 10 0 6 7 10 15 10 8 0 15
-4 15 -10z"/>
<path d="M4020 3083 c-24 -3 -45 -16 -66 -39 -18 -19 -37 -34 -43 -34 -7 0 -9
-4 -6 -10 3 -5 -1 -10 -10 -10 -9 0 -13 -4 -10 -10 3 -5 -1 -10 -9 -10 -9 0
-16 -3 -16 -7 0 -5 -21 -30 -46 -57 -33 -35 -42 -51 -34 -60 5 -7 8 -15 5 -18
-3 -3 14 -26 37 -51 37 -42 46 -47 85 -47 52 0 97 36 117 94 11 31 21 41 52
52 103 35 129 155 44 199 -29 15 -35 15 -100 8z m94 -49 c38 -37 -1 -124 -55
-124 -30 0 -69 -38 -69 -65 0 -12 -9 -34 -20 -48 -43 -55 -120 -38 -120 26 0
29 13 46 99 130 102 101 131 115 165 81z"/>
<path d="M5394 2464 c-4 -14 -2 -36 5 -50 9 -19 8 -24 -4 -24 -19 0 -19 -14 0
-30 11 -9 19 -10 28 -1 9 7 17 7 24 0 6 -6 26 -9 44 -7 39 3 46 27 13 43 -17
8 -19 14 -10 27 15 24 -7 47 -28 29 -12 -10 -17 -9 -25 7 -17 32 -40 35 -47 6z"/>
<path d="M8285 7851 c-149 -72 -267 -219 -250 -310 4 -20 18 -51 31 -69 78
-102 219 -78 372 64 79 73 112 130 112 195 0 129 -127 187 -265 120z"/>
<path d="M1490 7533 c62 -106 106 -173 112 -170 8 2 108 139 108 147 0 5 -215
61 -233 60 -5 0 1 -17 13 -37z"/>
<path d="M1070 7113 c-8 -3 -23 -13 -33 -21 -19 -17 -77 -113 -77 -128 0 -5
44 -32 98 -59 53 -27 99 -51 102 -52 12 -7 60 110 60 146 0 73 -85 138 -150
114z"/>
<path d="M9260 6061 c-142 -33 -129 -25 -119 -73 15 -69 41 -118 70 -134 62
-32 144 -5 169 55 10 26 10 43 -2 99 -9 43 -19 68 -28 69 -8 1 -49 -6 -90 -16z"/>
<path d="M701 5968 c-71 -24 -109 -82 -127 -194 l-6 -41 243 -47 c134 -26 251
-49 260 -52 22 -6 29 15 36 101 5 59 2 78 -15 111 -38 75 -143 124 -277 130
-44 2 -95 -2 -114 -8z"/>
<path d="M9078 5431 c-111 -36 -153 -87 -146 -176 6 -66 34 -106 96 -137 41
-20 61 -23 162 -22 137 1 214 23 270 79 33 34 35 39 35 106 0 70 0 71 -41 109
-23 21 -59 43 -80 49 -62 17 -230 13 -296 -8z"/>
<path d="M8679 2989 c29 -35 56 -65 60 -67 8 -3 64 108 58 114 -2 3 -42 7 -88
11 l-83 6 53 -64z"/>
<path d="M7917 2222 l-37 -38 58 -57 c32 -31 60 -57 64 -57 16 0 68 87 68 112
0 40 -40 78 -83 78 -25 0 -42 -9 -70 -38z"/>
<path d="M2599 1533 l-103 -156 30 -24 c44 -35 94 -48 137 -34 76 25 164 165
154 243 -6 43 -35 81 -85 110 l-30 18 -103 -157z"/>
<path d="M6841 1229 c4 -44 9 -83 12 -85 5 -6 117 48 116 56 0 6 -116 104
-127 108 -4 1 -5 -34 -1 -79z"/>
<path d="M3957 933 c-25 -36 -44 -69 -42 -73 5 -8 115 -34 120 -28 5 5 -19
155 -26 162 -3 3 -26 -24 -52 -61z"/>
<path d="M5819 1065 c-43 -23 -63 -78 -56 -154 14 -164 90 -259 184 -228 20 6
45 24 56 39 40 54 32 179 -19 280 -36 71 -103 97 -165 63z"/>
</g>
</svg>
