<svg viewBox="0 0 100 100" xmlns="http://www.w3.org/2000/svg" fill-rule="evenodd" clip-rule="evenodd" stroke-linejoin="round" stroke-miterlimit="2"><path d="M0 0h100v100H0z"/><g transform="matrix(1 0 0 1.04699 0 65.805)"><path fill="none" d="M0-43.897h100v63.743H0z"/><clipPath id="a"><path d="M0-43.897h100v63.743H0z"/></clipPath><g clip-path="url(#a)"><path d="M82.102-43.897h6.429L50 19.846 11.469-43.897h6.429L50 9.21l32.102-53.107z" fill="#fff"/><path d="M82.102-62.406h6.429L50 1.336 11.469-62.406h6.429L50-9.3l32.102-53.106z" fill="#fff"/><path d="M82.102-80.916h6.429L50-17.174 11.469-80.916h6.429L50-27.81l32.102-53.106z" fill="#fff"/><path d="M82.102-99.427h6.429L50-35.684 11.469-99.427h6.429L50-46.32l32.102-53.107z" fill="#fff"/></g></g></svg>